# xmcd CD database file
#
# Track frame offsets:
#	150
#	18319
#	44274
#	66582
#	83001
#	99181
#	113183
#	129548
#	150075
#	166484
#	193703
#	218080
#	229095
#	242240
#	261990
#	281090
#	296419
#	313606
#	334242
#	347792
#
# Disc length: 4777 seconds
#
# Revision: 0
# Processed by: cddbd v1.5.2PL0 Copyright (c) Steve Scherf et al.
# Submitted via: CDex 1.70beta2
#
DISCID=2212a714
DTITLE=100 Tubes Blues - 100 Tubes Blues - 1980's to 2000's
DYEAR=2009
DGENRE=Blues
TTITLE0=Guitar Shorty - A little less conversation
TTITLE1=James Cotton - 24 hours aka 23 hours too long
TTITLE2=Albert Collins, Robert Cray and Johnny Copeland - Black cat bone
TTITLE3=Lucky Peterson - Locked out of love
TTITLE4=Kenny Neal - Blues stew
TTITLE5=J.B. Hutto - Leave your love in greater hands
TTITLE6=Sonny Terry - I think I got the blues
TTITLE7=Byther Smith& Larry Davis - Addressing the nation with blues
TTITLE8=Eddie Burns - New inflation blues
TTITLE9=Kinsey Report - The game of love
TTITLE10=Johnny Heartsman - Tongue
TTITLE11=Lazy Lester - I done got over it
TTITLE12=Raful Neal - Luberta
TTITLE13=Long John Hunter - Time and time again
TTITLE14=Son Seals - Don't pick me for your food
TTITLE15=Floyd Dixon - Hey, Bartender
TTITLE16=Clarence Gatemouth Brown - Born in Louisiana
TTITLE17=Katie Webster - I'm bad
TTITLE18=Billy Boy Arnold - Move on down the road
TTITLE19=Corey Harris - I'm a rattlesnakin' daddy
EXTD=YEAR: 2009
EXTT0=
EXTT1=
EXTT2=
EXTT3=
EXTT4=
EXTT5=
EXTT6=
EXTT7=
EXTT8=
EXTT9=
EXTT10=
EXTT11=
EXTT12=
EXTT13=
EXTT14=
EXTT15=
EXTT16=
EXTT17=
EXTT18=
EXTT19=
PLAYORDER=
